<?xml version="1.0" standalone="no"?>
<!DOCTYPE svg PUBLIC "-//W3C//DTD SVG 20010904//EN"
 "http://www.w3.org/TR/2001/REC-SVG-20010904/DTD/svg10.dtd">
<svg version="1.0" xmlns="http://www.w3.org/2000/svg"
 width="512.000000pt" height="512.000000pt" viewBox="0 0 512.000000 512.000000"
 preserveAspectRatio="xMidYMid meet">

<g transform="translate(0.000000,512.000000) scale(0.100000,-0.100000)"
fill="#000000" stroke="none">
<path d="M2336 4819 c-604 -57 -1174 -388 -1555 -902 -108 -145 -162 -238
-150 -254 15 -18 21 -13 64 62 46 77 181 259 262 352 82 94 236 228 375 327
176 126 323 197 628 303 8 3 24 7 35 8 11 2 56 12 100 23 231 58 625 59 870 2
44 -11 91 -21 105 -24 45 -8 225 -73 325 -116 184 -81 401 -226 567 -380 47
-43 82 -68 89 -64 8 4 9 3 5 -5 -5 -7 14 -35 48 -72 248 -267 445 -634 521
-969 24 -109 22 -105 43 -89 16 13 16 13 0 -6 -16 -19 -16 -30 -2 -148 8 -71
13 -181 12 -245 l-3 -117 -2142 -3 -2141 -2 -7 65 c-4 38 -2 129 6 213 7 81
14 166 14 189 0 22 3 39 6 37 4 -2 10 17 14 42 17 118 112 392 182 526 32 62
36 88 13 88 -13 0 -77 -129 -125 -250 -48 -119 -98 -298 -119 -421 -20 -117
-37 -355 -29 -402 3 -20 3 -47 -1 -61 -6 -26 -7 -26 -117 -26 l-110 0 3 -27 3
-28 2416 -3 c2085 -2 2418 0 2435 12 38 29 3 41 -131 44 -100 3 -125 7 -125
18 0 8 5 14 10 14 15 0 12 229 -5 349 -45 312 -177 656 -360 931 -320 481
-797 822 -1343 960 -187 47 -485 68 -686 49z m735 -86 c13 -16 12 -17 -3 -4
-10 7 -18 15 -18 17 0 8 8 3 21 -13z"/>
<path d="M2519 4451 c-35 -35 -38 -77 -9 -114 26 -32 50 -40 83 -28 18 7 27 7
30 -2 2 -7 8 5 12 25 4 20 4 41 0 47 -8 14 -45 14 -45 1 0 -5 7 -10 15 -10 8
0 15 -6 15 -13 0 -37 -65 -50 -93 -19 -23 25 -22 85 1 105 23 21 51 22 80 1
12 -8 22 -11 22 -5 0 14 -41 41 -63 41 -10 0 -32 -13 -48 -29z"/>
<path d="M2300 4393 c-11 -38 -23 -76 -26 -85 -3 -10 -1 -18 5 -18 6 0 11 6
11 14 0 23 29 46 58 46 16 0 35 -10 50 -27 18 -22 22 -24 17 -8 -11 35 -76
145 -85 145 -5 0 -19 -30 -30 -67z m55 7 c20 -39 20 -40 -15 -40 -33 0 -35 5
-20 44 12 33 16 33 35 -4z"/>
<path d="M2736 4436 c-3 -14 -9 -52 -12 -84 l-7 -59 39 -6 c22 -4 48 -7 59 -6
l20 0 -20 9 c-11 5 -32 9 -47 9 -25 1 -28 5 -28 36 l0 35 48 -6 c35 -4 43 -3
32 5 -8 6 -27 11 -42 11 -25 0 -28 4 -28 31 l0 32 50 -6 c29 -4 50 -2 50 3 0
6 -8 10 -17 10 -10 0 -34 3 -54 6 -33 6 -37 4 -43 -20z"/>
<path d="M2150 4426 c0 -9 5 -37 11 -62 6 -25 9 -47 6 -50 -3 -3 -34 17 -70
45 -35 28 -66 48 -69 45 -9 -8 33 -164 44 -164 5 0 7 8 4 18 -16 57 -27 105
-23 108 2 2 34 -19 70 -48 37 -28 69 -49 72 -46 5 5 -30 156 -39 165 -3 4 -6
-1 -6 -11z"/>
<path d="M2930 4349 c-12 -39 -19 -76 -17 -82 2 -7 13 17 24 52 21 68 28 69
39 2 4 -23 11 -44 16 -47 5 -4 27 11 49 32 43 42 45 40 24 -30 -13 -42 -14
-69 -1 -55 8 10 47 152 42 156 -3 3 -26 -13 -52 -36 -25 -22 -50 -39 -54 -36
-3 2 -12 29 -19 60 -7 30 -16 55 -21 55 -5 0 -19 -32 -30 -71z"/>
<path d="M1857 4344 c-11 -11 -8 -174 3 -174 6 0 10 13 10 29 0 25 6 31 36 41
32 11 38 10 60 -11 13 -12 24 -18 24 -13 0 15 -125 135 -133 128z m61 -83 c-7
-2 -21 -8 -30 -13 -16 -8 -18 -3 -18 34 l0 42 30 -29 c21 -20 27 -31 18 -34z"/>
<path d="M3185 4264 c-20 -43 -34 -78 -33 -79 16 -14 92 -45 101 -42 7 3 -10
14 -36 26 l-48 21 16 30 c15 29 16 30 45 15 16 -8 35 -15 42 -15 7 1 -4 10
-24 21 -39 20 -42 26 -32 53 8 20 27 20 65 0 17 -8 33 -13 36 -10 3 2 -18 16
-46 31 l-51 25 -35 -76z"/>
<path d="M1688 4210 l-3 -70 -57 35 c-32 19 -60 31 -62 26 -6 -9 74 -154 81
-147 3 3 -9 33 -26 66 l-33 61 50 -31 c27 -16 52 -30 56 -30 3 0 6 28 6 63 l0
62 22 -35 c11 -19 27 -46 35 -58 8 -13 17 -21 20 -19 6 7 -69 147 -79 147 -4
0 -8 -31 -10 -70z"/>
<path d="M3363 4170 c-23 -38 -38 -72 -33 -75 5 -3 23 21 41 52 l33 58 7 -40
c4 -22 10 -61 14 -87 3 -27 10 -48 15 -48 4 0 21 21 36 48 15 26 34 57 42 70
8 12 10 22 4 22 -6 0 -25 -24 -43 -52 l-33 -53 -9 55 c-4 30 -10 70 -13 88 -3
17 -8 32 -12 32 -4 -1 -26 -32 -49 -70z"/>
<path d="M2449 4121 l-86 -6 -94 -72 c-52 -40 -114 -90 -139 -111 l-45 -40 88
-7 c76 -6 87 -10 82 -24 -4 -9 -12 -29 -17 -46 -6 -16 -16 -37 -23 -45 -25
-32 -34 -91 -23 -140 9 -39 8 -56 -6 -95 -9 -27 -14 -51 -11 -53 3 -3 5 0 5 7
0 7 4 10 9 6 5 -3 24 -7 41 -9 26 -3 30 -1 23 13 -6 14 -13 142 -13 246 0 41
29 125 43 126 7 0 73 0 147 -1 74 0 150 4 168 9 48 14 306 221 292 234 -9 8
-351 14 -441 8z"/>
<path d="M3618 4093 c30 -21 28 -28 -15 -82 -56 -71 -57 -71 -45 -71 6 0 30
25 54 55 23 30 47 55 52 55 5 0 18 -7 28 -17 10 -9 18 -11 18 -6 0 14 -85 83
-102 82 -7 0 -3 -7 10 -16z"/>
<path d="M1315 4015 c-28 -28 -31 -54 -10 -94 20 -40 70 -59 104 -40 14 8 30
25 36 37 5 12 16 20 22 17 22 -8 14 10 -15 38 -29 27 -29 27 -47 7 -10 -11
-13 -20 -7 -20 6 0 14 5 17 10 10 16 25 1 25 -24 0 -29 -29 -56 -62 -56 -33 0
-68 39 -68 76 0 36 16 54 47 54 13 0 23 5 23 10 0 19 -41 10 -65 -15z"/>
<path d="M2672 3885 c-39 -30 -50 -34 -137 -40 -53 -4 -120 -5 -150 -3 -54 5
-55 4 -55 -23 0 -15 7 -34 15 -43 22 -21 109 -52 189 -65 66 -12 70 -11 105
12 47 32 89 74 97 99 7 22 -3 85 -14 92 -4 2 -26 -11 -50 -29z"/>
<path d="M1180 3880 c0 -5 3 -10 8 -10 4 -1 27 -19 52 -42 l45 -41 -92 5 c-51
3 -93 2 -93 -2 0 -13 120 -113 127 -107 3 4 -16 27 -43 52 l-49 46 88 -6 c53
-4 87 -2 87 3 0 10 -113 112 -124 112 -3 0 -6 -4 -6 -10z"/>
<path d="M3823 3844 c-3 -9 1 -37 11 -62 10 -28 13 -49 7 -55 -17 -17 -46 -2
-61 30 -17 37 -35 44 -25 11 10 -32 45 -68 66 -68 10 0 25 7 33 15 14 14 13
21 -4 65 -16 42 -17 50 -5 60 21 17 44 5 59 -30 12 -31 30 -32 19 -2 -17 49
-86 73 -100 36z"/>
<path d="M2675 3708 c-41 -31 -58 -38 -95 -38 -52 1 -137 20 -194 44 -21 9
-41 16 -43 16 -15 0 12 -124 38 -178 72 -148 202 -164 291 -37 31 45 61 149
56 198 l-3 33 -50 -38z"/>
<path d="M3970 3669 c-14 -28 -35 -60 -49 -70 -30 -24 -21 -37 11 -15 14 10
43 16 80 16 32 0 58 4 58 10 0 6 -23 10 -51 10 -37 0 -50 3 -46 13 3 6 12 29
21 50 24 56 3 44 -24 -14z"/>
<path d="M1020 3693 c1 -12 137 -103 144 -96 5 6 -125 103 -138 103 -3 0 -6
-3 -6 -7z"/>
<path d="M950 3586 c0 -2 26 -19 58 -37 l57 -33 -30 -8 c-16 -4 -56 -13 -89
-19 -32 -6 -54 -14 -50 -19 23 -20 144 -80 144 -71 0 6 -26 24 -57 40 -56 28
-57 29 -28 34 17 3 56 11 88 17 31 6 57 15 57 20 0 4 -29 24 -64 44 -58 33
-86 43 -86 32z"/>
<path d="M4072 3501 c-10 -6 -12 -22 -7 -63 6 -44 4 -56 -8 -61 -24 -9 -46 14
-55 58 -7 30 -11 36 -17 23 -11 -26 25 -92 53 -96 40 -6 53 14 46 73 -5 42 -3
53 10 58 21 8 46 -18 46 -49 0 -13 5 -24 10 -24 15 0 12 43 -6 68 -15 22 -48
28 -72 13z"/>
<path d="M2452 3400 c-7 -12 -22 -24 -34 -29 -18 -7 -15 -11 31 -40 28 -18 59
-45 70 -59 l18 -26 12 22 c6 12 33 36 59 53 26 18 48 33 50 34 2 2 -10 16 -26
32 -24 24 -34 28 -53 20 -24 -9 -72 -6 -99 7 -9 4 -20 -1 -28 -14z"/>
<path d="M852 3353 c-11 -4 -42 -65 -42 -83 0 -12 149 -70 155 -60 3 4 -8 13
-25 18 -26 9 -29 14 -21 34 5 15 20 26 45 31 46 11 47 24 1 19 -27 -3 -35 -1
-35 12 0 26 -44 43 -78 29z m58 -28 c10 -12 10 -21 0 -45 -14 -33 -18 -35 -55
-18 -28 13 -30 17 -13 53 13 28 48 34 68 10z"/>
<path d="M2279 3340 c-82 -14 -144 -58 -182 -128 -15 -27 -40 -107 -57 -178
-17 -71 -33 -137 -36 -146 -6 -20 7 -19 129 9 72 16 87 31 87 89 0 13 4 24 9
24 11 0 21 -25 21 -55 0 -24 0 -24 43 -9 62 23 149 21 192 -5 l35 -20 0 150
c0 173 -2 179 -85 234 -61 40 -91 47 -156 35z"/>
<path d="M2655 3321 c-98 -57 -99 -60 -105 -241 l-5 -159 33 19 c41 24 131 27
192 5 23 -8 44 -15 45 -15 1 0 5 18 9 40 9 54 22 50 30 -9 6 -49 7 -50 54 -65
48 -15 155 -36 160 -31 1 1 -15 74 -36 162 -43 174 -68 225 -130 265 -49 32
-87 46 -147 53 -43 5 -57 2 -100 -24z"/>
<path d="M4204 3314 c7 -31 6 -32 -56 -54 -63 -23 -93 -40 -70 -40 6 0 41 11
77 24 l66 24 14 -32 c20 -45 19 -6 -2 46 -21 56 -37 73 -29 32z"/>
<path d="M828 3117 c-39 -5 -68 -14 -68 -21 1 -14 124 -106 142 -106 7 0 1 10
-15 23 -25 20 -26 25 -17 60 9 29 16 37 35 37 13 0 27 5 30 10 7 12 -14 11
-107 -3z m32 -24 c0 -5 -3 -18 -6 -30 l-6 -23 -29 21 c-38 27 -37 39 6 39 19
0 35 -3 35 -7z"/>
<path d="M4185 3103 c-33 -9 -62 -17 -64 -19 -6 -5 21 -104 29 -104 4 0 4 18
-1 41 -11 47 -8 55 26 61 21 5 25 1 31 -29 3 -18 10 -36 15 -39 11 -7 11 3 0
44 -9 29 -7 33 14 38 33 8 42 0 50 -46 4 -22 10 -38 14 -35 4 2 3 27 -3 55
-11 57 -13 58 -111 33z"/>
<path d="M715 2889 c-4 -27 -5 -53 -2 -55 6 -7 157 -27 161 -23 9 11 15 109 7
109 -5 0 -11 -19 -13 -42 -3 -41 -5 -43 -37 -46 l-33 -3 7 46 c4 33 3 45 -4
40 -6 -3 -11 -22 -11 -41 0 -31 -2 -34 -31 -34 l-32 0 5 50 c7 65 -8 65 -17
-1z"/>
<path d="M2237 2891 c-59 -21 -147 -44 -195 -50 -48 -7 -98 -20 -112 -29 -35
-22 -130 -113 -130 -125 0 -22 142 7 310 63 96 32 194 61 216 65 61 9 117 -9
154 -51 l31 -36 -3 78 c-3 77 -4 79 -37 101 -48 32 -105 28 -234 -16z"/>
<path d="M2603 2915 c-42 -18 -53 -42 -53 -118 l0 -65 33 33 c68 68 141 65
351 -15 178 -67 326 -100 326 -72 0 11 -107 113 -140 134 -14 9 -56 18 -94 22
-42 3 -119 23 -200 51 -139 48 -172 52 -223 30z"/>
<path d="M4193 2903 c-59 -7 -35 -21 27 -16 33 3 60 3 60 0 0 -4 -18 -19 -40
-33 -22 -15 -40 -30 -40 -33 0 -4 24 -18 53 -33 l52 -25 -62 -8 c-35 -4 -63
-11 -63 -17 0 -8 35 -6 128 8 17 3 32 9 32 13 0 5 -25 19 -55 32 -30 12 -55
26 -55 30 0 5 20 22 44 39 25 16 48 35 51 40 6 10 -64 11 -132 3z"/>
<path d="M2290 2780 c-19 -5 -84 -27 -145 -50 -148 -55 -217 -72 -303 -74 -62
-2 -75 -6 -88 -24 -15 -22 -15 -22 46 -22 79 0 141 18 317 91 168 70 232 86
288 70 28 -7 35 -7 27 1 -14 14 -98 19 -142 8z"/>
<path d="M2653 2779 c-18 -5 -34 -13 -37 -18 -3 -5 12 -2 34 5 55 19 118 5
260 -57 63 -28 147 -62 185 -75 71 -26 215 -44 215 -28 -1 26 -21 38 -62 35
-63 -3 -171 24 -332 84 -151 56 -212 69 -263 54z"/>
<path d="M857 2733 c-4 -3 -7 -26 -7 -50 l0 -43 -75 0 c-43 0 -75 -4 -75 -10
0 -6 35 -10 85 -10 l85 0 0 60 c0 61 -1 65 -13 53z"/>
<path d="M4995 2374 c-15 -142 -39 -278 -70 -399 -33 -128 -96 -307 -117 -332
-8 -10 -435 -13 -2246 -13 -1229 0 -2237 -2 -2239 -4 -8 -8 18 -46 31 -46 8 0
16 -7 20 -15 4 -12 27 -15 120 -15 l114 0 28 -47 c109 -189 330 -470 360 -459
8 3 11 0 8 -8 -12 -32 301 -283 511 -409 84 -50 264 -131 373 -167 499 -167
1026 -144 1522 66 384 162 771 504 1015 899 33 54 69 104 80 111 14 10 56 14
157 14 132 0 138 1 152 23 45 68 130 337 165 518 27 142 45 319 32 332 -6 6
-12 -12 -16 -49z m-566 -816 c9 -17 10 -20 1 -11 -10 10 -24 -5 -66 -72 -280
-446 -691 -781 -1150 -938 -71 -24 -170 -52 -221 -63 -91 -18 -92 -18 -75 -39
17 -20 17 -20 -5 -2 -20 18 -28 18 -115 6 -117 -16 -416 -16 -528 0 -47 6
-127 21 -177 31 -116 25 -111 25 -82 -7 21 -25 20 -25 -11 3 -23 20 -74 44
-145 69 -372 127 -729 382 -984 700 -75 94 -231 327 -225 337 3 4 852 8 1887
8 l1882 0 14 -22z"/>
<path d="M1721 1134 c-17 -32 -30 -58 -28 -59 1 0 14 -9 29 -18 15 -9 33 -17
40 -17 7 0 -2 9 -19 20 -18 11 -33 21 -33 24 0 2 12 25 26 50 15 26 24 49 21
52 -3 3 -19 -21 -36 -52z"/>
<path d="M3290 1140 c0 -27 -3 -50 -7 -50 -5 0 -21 9 -38 20 -50 33 -58 25
-30 -29 13 -27 29 -52 35 -56 16 -10 12 7 -10 40 -28 42 -25 48 13 25 17 -11
35 -20 39 -20 4 0 8 19 10 43 l3 42 23 -43 c13 -24 26 -42 28 -39 7 6 -48 117
-58 117 -4 0 -8 -22 -8 -50z"/>
<path d="M1851 1069 c-28 -68 -26 -86 3 -29 l24 44 7 -42 c4 -23 9 -42 12 -42
2 0 20 12 39 26 38 29 41 27 18 -17 -8 -17 -14 -35 -12 -41 2 -6 14 12 27 41
12 29 21 57 19 62 -2 5 -22 -4 -45 -21 l-41 -30 -7 50 c-4 27 -10 50 -15 50
-4 0 -17 -23 -29 -51z"/>
<path d="M3060 1070 c-35 -35 -21 -93 26 -110 53 -21 97 36 69 89 -23 45 -62
54 -95 21z m84 -33 c13 -36 -2 -61 -37 -65 -37 -5 -65 38 -48 74 9 21 17 25
43 22 25 -2 35 -9 42 -31z"/>
<path d="M2049 1024 c-12 -14 -9 -21 23 -48 53 -46 27 -79 -32 -39 l-25 17 19
-22 c26 -29 72 -30 82 0 5 17 -1 27 -25 47 -48 40 -34 69 20 41 11 -6 19 -7
19 -1 0 24 -62 28 -81 5z"/>
<path d="M2905 1015 c-14 -13 -25 -33 -25 -45 0 -23 42 -70 62 -70 19 0 58 29
58 42 0 6 -8 4 -18 -5 -39 -36 -82 -15 -82 40 0 26 5 34 25 39 14 3 32 3 41 0
14 -5 15 -4 4 9 -18 21 -37 19 -65 -10z"/>
<path d="M2306 934 c-3 -30 -4 -60 -1 -65 4 -5 23 -8 43 -7 l37 1 -32 4 c-27
4 -33 9 -33 29 0 20 5 24 33 25 l32 1 -30 7 c-16 3 -30 12 -29 19 3 33 5 34
40 27 24 -4 34 -3 29 4 -3 6 -23 11 -44 11 l-38 0 -7 -56z"/>
<path d="M2725 939 c0 -93 -58 -95 -82 -3 l-12 49 3 -47 c4 -58 19 -78 57 -78
40 0 60 33 52 88 -8 58 -18 53 -18 -9z"/>
<path d="M2467 973 c-4 -3 -7 -33 -7 -65 l0 -58 39 0 c30 0 44 6 55 22 22 31
20 64 -4 88 -19 19 -69 27 -83 13z m56 -12 c14 -6 28 -19 32 -31 9 -30 -19
-70 -50 -70 -24 0 -25 3 -25 55 0 58 3 61 43 46z"/>
<path d="M2190 930 c8 -5 22 -10 30 -10 13 0 13 1 0 10 -8 5 -22 10 -30 10
-13 0 -13 -1 0 -10z"/>
<path d="M3260 2375 c-67 -21 -112 -72 -118 -133 -9 -102 35 -162 187 -251
114 -67 141 -97 141 -158 0 -38 -5 -50 -34 -79 -29 -29 -41 -34 -80 -34 -27 0
-63 9 -86 20 -36 18 -87 80 -103 123 -4 9 -13 17 -22 17 -12 0 -15 -15 -15
-85 0 -94 11 -107 49 -59 l20 26 28 -20 c82 -58 245 -55 333 8 37 26 70 88 70
130 0 39 -24 98 -53 128 -12 13 -65 50 -117 82 -102 63 -154 110 -163 149 -16
65 30 131 92 131 63 0 135 -62 162 -138 6 -18 17 -32 25 -32 11 0 14 19 14 90
0 97 -6 105 -45 66 l-24 -24 -57 29 c-64 33 -128 37 -204 14z"/>
<path d="M1460 2371 c0 -5 10 -11 23 -13 l22 -3 0 -310 c0 -302 -1 -310 -20
-313 -11 -2 -24 -8 -30 -13 -6 -6 90 -8 245 -7 l255 3 0 80 c0 63 -3 80 -15
80 -21 0 -57 -59 -65 -105 l-7 -40 -104 0 -104 0 2 312 c3 304 4 313 23 316
11 2 24 8 30 13 5 5 -44 9 -123 9 -75 0 -132 -4 -132 -9z"/>
<path d="M2120 2371 c0 -6 11 -11 25 -11 l25 0 -2 -307 -3 -307 -32 -10 c-57
-16 -36 -26 52 -26 47 0 85 4 85 8 0 4 -16 14 -35 21 l-35 12 0 252 c0 144 4
247 9 242 5 -6 71 -130 147 -277 76 -148 144 -268 150 -268 6 0 60 124 120
275 60 151 112 275 117 275 4 0 6 -116 5 -257 -3 -249 -4 -258 -23 -261 -11
-2 -24 -8 -29 -13 -6 -5 46 -9 129 -9 83 0 135 4 130 9 -6 5 -19 11 -30 13
-19 3 -20 11 -20 313 l0 310 23 3 c37 5 25 22 -15 21 -74 -1 -136 -16 -153
-37 -9 -11 -54 -112 -100 -224 -45 -111 -85 -207 -87 -211 -3 -5 -48 74 -101
175 -112 216 -134 252 -166 273 -29 19 -186 33 -186 16z"/>
</g>
</svg>
